<svg width="363" height="90" viewBox="0 0 363 90" fill="none" xmlns="http://www.w3.org/2000/svg">
<path d="M15.6578 0L15.7661 75.3614H25.41L25.3016 89.5663H0.48761V0H15.6578Z" fill="black"/>
<path d="M44.1018 89.512H28.8233V0H44.1018V89.512Z" fill="black"/>
<path d="M47.9485 0H71.0288C77.1511 0 81.1603 3.14458 81.1603 11.3313V31.5542C81.1603 37.5723 77.2052 40.3373 75.2548 40.9337C77.6387 41.5301 82.3522 44.1867 82.3522 51.3976V75.9578C82.3522 85.012 78.5055 89.5663 70.9205 89.5663H47.9485V0ZM63.227 11.2771V36.8133H64.3106C65.5025 36.8133 66.0985 36.1084 66.0985 34.5361V13.4458C66.0985 11.8735 65.8818 11.2771 64.3106 11.2771H63.227ZM63.227 47.8735V77.8554H64.6899C66.2611 77.8554 66.4778 77.1506 66.4778 75.5783V50.3133C66.4778 48.5241 66.0985 47.9277 64.6899 47.9277H63.227V47.8735Z" fill="black"/>
<path d="M100.99 89.512H85.7113V0H109.388C114.697 0 118.869 3.36145 118.869 10.7349V31.8253C118.869 37.9518 115.997 40.3916 113.451 41.4759C115.997 42.5602 119.086 45.1084 119.086 49.7711V85.2831C119.086 87.0723 119.302 88.4277 119.79 89.241V89.6205H104.728C104.132 88.753 103.753 87.5602 103.753 85.8795V52.3193C103.753 51.0181 103.536 50.259 102.073 50.259H100.881V89.512H100.99ZM100.99 37.4096H102.182C103.265 37.4096 103.861 36.7048 103.861 35.3494V13.3373C103.861 11.8735 103.645 11.2771 102.29 11.2771H100.99V37.4096Z" fill="black"/>
<path d="M141.299 73.4096H136.152L135.285 89.5663H122.174L129.596 0H148.83L156.903 89.5663H142.112L141.299 73.4096ZM138.753 26.241L136.965 60.2892H140.595L138.753 26.241Z" fill="black"/>
<path d="M175.215 89.512H159.937V0H183.667C188.977 0 193.148 3.36145 193.148 10.7349V31.8253C193.148 37.9518 190.277 40.3916 187.731 41.4759C190.277 42.5602 193.365 45.1084 193.365 49.7711V85.2831C193.365 87.0723 193.582 88.4277 194.07 89.241V89.6205H179.008C178.412 88.753 178.033 87.5602 178.033 85.8795V52.3193C178.033 51.0181 177.816 50.259 176.353 50.259H175.161V89.512H175.215ZM175.215 37.4096H176.407C177.491 37.4096 178.087 36.7048 178.087 35.3494V13.3373C178.087 11.8735 177.87 11.2771 176.516 11.2771H175.215V37.4096Z" fill="black"/>
<path d="M204.364 54.2711L194.503 0H209.673L212.328 30.9578L214.929 0H228.527L219.48 54.2711V89.5663H204.309V54.2711H204.364Z" fill="black"/>
<path d="M226.523 72.2169V57.4699H230.37V68.5301H236.546V72.2169H226.523Z" fill="#F05129"/>
<path d="M238.117 72.2169V57.4699H241.964V72.2169H238.117Z" fill="#F05129"/>
<path d="M244.185 72.2169V57.4699H249.928C253.937 57.4699 255.671 58.8253 255.671 61.3193C255.671 63.0542 255.021 64.0843 253.883 64.6807C255.238 65.2229 256.05 66.1988 256.05 67.988C256.05 70.753 254.317 72.2711 250.578 72.2711H244.185V72.2169ZM247.869 60.3976V63.2169H250.091C251.391 63.2169 252.041 62.7831 252.041 61.753C252.041 60.8313 251.499 60.3976 250.091 60.3976H247.869ZM247.869 66.0904V69.0181H249.874C251.662 69.0181 252.204 68.5301 252.204 67.5542C252.204 66.5783 251.608 66.0904 249.874 66.0904H247.869Z" fill="#F05129"/>
<path d="M261.197 67.2831V72.2169H257.513V57.4699H263.473C267.645 57.4699 269.27 59.3133 269.27 62.0783C269.27 63.9759 268.512 65.1145 267.157 65.7651C268.349 66.253 268.945 67.2831 268.945 69.1265V71.4578C268.945 71.8374 269.053 72.1084 269.27 72.2711H265.423C265.207 72.1084 265.098 71.7831 265.098 71.4036V69.2349C265.098 67.7711 264.557 67.3373 263.04 67.3373H261.197V67.2831ZM261.197 60.6145V64.0301H263.365C264.719 64.0301 265.423 63.3795 265.423 62.2952C265.423 61.2651 264.827 60.6145 263.365 60.6145H261.197Z" fill="#F05129"/>
<path d="M279.347 69.6145H274.417L273.604 72.2169H269.812L274.959 57.4699H278.806L284.007 72.2169H280.214L279.347 69.6145ZM276.855 61.753L275.392 66.5783H278.372L276.855 61.753Z" fill="#F05129"/>
<path d="M288.72 67.2831V72.2169H284.982V57.4699H290.942C295.114 57.4699 296.739 59.3133 296.739 62.0783C296.739 63.9759 295.98 65.1145 294.626 65.7651C295.818 66.253 296.414 67.2831 296.414 69.1265V71.4578C296.414 71.8374 296.522 72.1084 296.739 72.2711H292.892C292.676 72.1084 292.567 71.7831 292.567 71.4036V69.2349C292.567 67.7711 292.025 67.3373 290.508 67.3373H288.72V67.2831ZM288.72 60.6145V64.0301H290.888C292.242 64.0301 292.946 63.3795 292.946 62.2952C292.946 61.2651 292.35 60.6145 290.888 60.6145H288.72Z" fill="#F05129"/>
<path d="M301.832 72.2169V66.4699L297.281 57.4699H301.29L303.836 62.7831L306.491 57.4699H310.446L305.733 66.5783V72.2711H301.832V72.2169Z" fill="#F05129"/>
<path d="M227 83L307 83" stroke="#F05129"/>
</svg>
